<svg width="18" height="26" viewBox="0 0 18 26" fill="none" xmlns="http://www.w3.org/2000/svg">
<path d="M16.8349 6.97859C16.7459 6.64508 16.5652 6.28971 16.4315 5.97857C14.8318 2.13412 11.3365 0.756348 8.51425 0.756348C4.73612 0.756348 0.57496 3.28975 0.0194092 8.51168V9.57854C0.0194092 9.62307 0.0347539 10.023 0.0565505 10.2231C0.36798 12.7117 2.3317 15.3566 3.79829 17.8452C5.37613 20.5116 7.01337 23.1345 8.63544 25.7563C9.63564 24.0453 10.6322 22.3119 11.6097 20.6453C11.876 20.1561 12.1853 19.6673 12.4519 19.2005C12.6297 18.8896 12.9692 18.5788 13.1244 18.2895C14.7021 15.4008 17.2418 12.4898 17.2418 9.62301V8.4453C17.2418 8.13451 16.8566 7.04561 16.8349 6.97859ZM8.58342 12.3343C7.47284 12.3343 6.25723 11.7789 5.65722 10.2453C5.56782 10.0012 5.57503 9.51199 5.57503 9.46718V8.77829C5.57503 6.82323 7.23505 5.93416 8.67921 5.93416C10.4571 5.93416 11.8321 7.35657 11.8321 9.13447C11.8321 10.9123 10.3613 12.3343 8.58342 12.3343Z" fill="#89D7D7"/>
</svg>
