<svg width="28" height="68" viewBox="0 0 28 68" fill="none" xmlns="http://www.w3.org/2000/svg">
<path d="M14 0C6.64779 0 0.666626 5.97869 0.666626 13.3269V26.6739C0.666626 34.0219 6.64779 40 14 40C21.3521 40 27.3333 34.0221 27.3333 26.6739V13.3269C27.3333 5.97869 21.3519 0 14 0ZM25.8518 26.6739C25.8518 33.2052 20.5351 38.5185 14 38.5185C7.46484 38.5185 2.14809 33.2052 2.14809 26.6739V13.3269C2.14809 6.79555 7.46484 1.48146 14 1.48146C20.5351 1.48146 25.8518 6.79536 25.8518 13.3269V26.6739Z" fill="white"/>
<path d="M14 4.44438C13.5909 4.44438 13.2592 4.77573 13.2592 5.18521V11.8931C13.2592 12.3026 13.5909 12.634 14 12.634C14.4091 12.634 14.7408 12.3026 14.7408 11.8931V5.18521C14.7406 4.77573 14.4091 4.44438 14 4.44438Z" fill="white"/>
<circle cx="14" cy="52.0319" r="3.5" stroke="white"/>
<circle cx="14" cy="64.5577" r="2" stroke="white"/>
</svg>
