<svg width="142" height="93" viewBox="0 0 142 93" fill="none" xmlns="http://www.w3.org/2000/svg">
<path d="M141.86 0.271973H0.752441V92.1874H141.86V0.271973Z" fill="#BEBEBE"/>
<path d="M30.4832 52.0149H26.2399V71.8165H22.3643V48.5596H34.3585V71.8165H30.4832V52.0149Z" fill="#111111"/>
<path d="M51.2993 55.4767C51.3431 51.4357 53.5395 48.1729 57.7131 48.1729C61.4911 48.1729 63.8809 50.7649 63.8809 55.0102V71.816C63.8809 71.816 58.8431 71.8031 56.8725 71.8031C53.9169 71.8031 51.5364 70.3699 51.5364 65.7508V65.1911C51.5364 60.8055 53.6392 58.3326 58.2368 58.3326H60.023V55.4763C60.023 52.9102 59.0308 51.5362 57.6252 51.58C56.042 51.629 55.1438 52.9102 55.1438 55.4763H51.2993V55.4767ZM60.0011 68.749L60.023 61.6923H58.1432C56.0789 61.6923 55.2342 62.9055 55.2342 65.1915V65.7512C55.2342 67.2165 55.89 68.749 57.6908 68.749C58.8638 68.749 59.2995 68.749 60.0011 68.749Z" fill="#111111"/>
<path d="M107.666 55.4767C107.71 51.4357 109.907 48.1729 114.08 48.1729C117.858 48.1729 120.248 50.7649 120.248 55.0102V71.816C120.248 71.816 115.21 71.8031 113.239 71.8031C110.284 71.8031 107.903 70.3699 107.903 65.7508V65.1911C107.903 60.8055 110.006 58.3326 114.603 58.3326H116.39V55.4763C116.39 52.9102 115.398 51.5362 113.992 51.58C112.409 51.629 111.51 52.9102 111.51 55.4763H107.666V55.4767ZM116.368 68.749L116.39 61.6923H114.51C112.446 61.6923 111.601 62.9055 111.601 65.1915V65.7512C111.601 67.2165 112.257 68.749 114.058 68.749C115.231 68.749 115.666 68.749 116.368 68.749Z" fill="#111111"/>
<path d="M75.1529 61.6166H70.8095V71.8165H66.9338V48.5596H70.8095V58.1612H75.1529V48.5596H79.0286V71.8165H75.1529V61.6166Z" fill="#111111"/>
<path d="M94.96 48.5596H107.255V52.0149H103.045V71.8165H99.1696V52.0149H94.96V48.5596V48.5596Z" fill="#111111"/>
<path d="M90.6403 65.4725H94.5091C94.2894 69.7973 92.2636 72.2 88.2708 72.2C83.8605 72.2 81.8132 69.4917 81.8813 64.3526V56.0427C81.8813 51.1031 83.7162 48.1523 88.0336 48.1523C92.3511 48.1523 94.5074 50.9304 94.5074 55.8701V61.6309H85.7185V63.4877C85.7185 66.9961 86.2061 68.7054 88.1832 68.7491C89.7149 68.7828 90.4084 67.7808 90.6403 65.4725ZM85.7189 57.9939H90.6463V56.5628C90.6463 53.0543 89.95 51.6681 88.1394 51.6681C86.3289 51.6681 85.7189 53.0543 85.7189 56.5628V57.9939Z" fill="#111111"/>
<path d="M45.3143 48.5596L50.4594 71.8165H46.5169L43.3764 55.8691L40.236 71.8165H36.2935L41.4386 48.5596H45.3143V48.5596Z" fill="#111111"/>
<path d="M22.5957 43.9234V20.6665H28.0084C31.6834 20.6665 34.0558 22.5602 34.0558 27.1452C34.0558 29.3712 33.1203 31.0991 31.6838 31.7966C33.3878 32.5606 34.5235 34.3882 34.5235 37.1124C34.5235 41.7306 32.1848 43.9234 28.3091 43.9234H22.5957ZM27.5402 30.2686C29.3443 30.2686 30.1797 29.4048 30.1797 27.2453C30.1797 25.0525 29.3443 24.1223 27.5402 24.1223H26.471V30.2686H27.5402ZM26.471 33.7235V40.468H27.9411C29.7452 40.468 30.6474 39.5046 30.6474 37.0459C30.6474 34.687 29.7452 33.7235 28.008 33.7235H26.471Z" fill="#111111"/>
<path d="M45.3564 37.2172H49.2252C49.0055 41.5419 46.9797 44.3075 42.9873 44.3075C38.577 44.3075 36.5297 41.5991 36.5978 36.46V28.1501C36.5978 23.2105 38.4327 20.2598 42.7502 20.2598C47.0677 20.2598 49.224 23.0378 49.224 27.9775V33.7383H40.435V35.5951C40.435 39.1035 40.9226 40.8128 42.8998 40.8565C44.4311 40.8902 45.1246 39.5255 45.3564 37.2172ZM40.435 30.1009H45.3629V28.6698C45.3629 25.1613 44.6666 23.7751 42.856 23.7751C41.0454 23.7751 40.4354 25.1613 40.4354 28.6698V30.1009H40.435Z" fill="#111111"/>
<path d="M59.3458 20.6665L64.4909 43.9234H60.5484L57.4079 27.9761L54.2675 43.9234H50.325L55.4701 20.6665H59.3458Z" fill="#111111"/>
<path d="M78.4879 36.9799C78.4879 41.93 75.9822 44.3222 72.1734 44.3222C68.3646 44.3222 65.8589 41.93 65.8589 36.9799V27.6105C65.8589 22.6603 68.3646 20.2681 72.1734 20.2681C75.9822 20.2681 78.4879 22.6603 78.4879 27.6105V36.9799ZM74.6122 28.1086C74.6122 25.0521 73.8437 23.723 72.173 23.723C70.5026 23.723 69.7342 25.0521 69.7342 28.1086V36.4809C69.7342 39.5374 70.5026 40.8665 72.173 40.8665C73.8437 40.8665 74.6122 39.5374 74.6122 36.4809V28.1086Z" fill="#111111"/>
</svg>
