<svg width="21" height="20" viewBox="0 0 21 20" fill="none" xmlns="http://www.w3.org/2000/svg">
<path d="M9.52775 6.64403H6.85889V9.3129H9.52775V6.64403Z" fill="#89D7D7"/>
<path d="M13.7533 6.64403H11.0845V9.3129H13.7533V6.64403Z" fill="#89D7D7"/>
<path d="M17.9792 6.64403H15.3103V9.3129H17.9792V6.64403Z" fill="#89D7D7"/>
<path d="M5.30216 10.6473H2.6333V13.3162H5.30216V10.6473Z" fill="#89D7D7"/>
<path d="M9.52775 10.6473H6.85889V13.3162H9.52775V10.6473Z" fill="#89D7D7"/>
<path d="M13.7536 10.6473H11.0847V13.3162H13.7536V10.6473Z" fill="#89D7D7"/>
<path d="M17.9794 10.6473H15.3105V13.3162H17.9794V10.6473Z" fill="#89D7D7"/>
<path d="M5.30216 14.6508H2.6333V17.3194H5.30216V14.6508Z" fill="#89D7D7"/>
<path d="M9.52775 14.6508H6.85889V17.3194H9.52775V14.6508Z" fill="#89D7D7"/>
<path d="M13.7536 14.6508H11.0847V17.3194H13.7536V14.6508Z" fill="#89D7D7"/>
<path d="M18.9718 0.762655H1.64083C0.90407 0.762655 0.306396 1.36013 0.306396 2.09689V5.24735H20.3062V2.09689C20.3062 1.36013 19.7085 0.762655 18.9718 0.762655ZM5.35092 4.20811C4.79835 4.20811 4.35012 3.75988 4.35012 3.2073C4.35012 2.65453 4.79835 2.2065 5.35092 2.2065C5.90369 2.2065 6.35153 2.65434 6.35153 3.2073C6.35153 3.75985 5.90369 4.20811 5.35092 4.20811ZM15.2621 4.20811C14.7093 4.20811 14.261 3.75988 14.261 3.2073C14.261 2.65453 14.7093 2.2065 15.2621 2.2065C15.8146 2.2065 16.2625 2.65434 16.2625 3.2073C16.2625 3.75985 15.8146 4.20811 15.2621 4.20811Z" fill="#89D7D7"/>
<path d="M19.4168 18.0131C19.4168 18.2584 19.2175 18.4579 18.972 18.4579H1.64107C1.39581 18.4579 1.19627 18.2584 1.19627 18.0131V6.54152H0.306641V18.0131C0.306641 18.7501 0.904086 19.3476 1.64107 19.3476H18.972C19.7088 19.3476 20.3064 18.7501 20.3064 18.0131V6.54152H19.417V18.0131H19.4168Z" fill="#89D7D7"/>
</svg>
