<svg width="220" height="30" viewBox="0 0 220 30" fill="none" xmlns="http://www.w3.org/2000/svg">
<path d="M159.012 0.927246V10.7576C158.39 10.0306 157.331 9.18515 156.436 8.7345C155.322 8.17413 153.68 7.92752 152.251 7.92752C149.589 7.92752 146.866 8.73912 145.01 10.8042C143.153 12.8673 141.999 15.2493 141.999 18.8473C141.998 21.9701 142.942 24.5254 144.827 26.5197C146.714 28.5136 149.035 29.5082 151.798 29.5097C153.476 29.5097 155.317 29.2252 156.443 28.6602C157.387 28.1834 158.241 27.5302 159.012 26.5751V29.5308H165.017L165.019 0.928279H159.012V0.927246ZM156.803 23.1232C155.892 24.2829 154.565 24.8648 152.816 24.8632C151.067 24.8622 149.763 24.2782 148.904 23.1098C148.042 21.945 147.612 20.3879 147.613 18.4397C147.613 16.6345 148.034 15.1206 148.884 13.9034C149.725 12.6843 151.056 12.0742 152.858 12.0742C154.042 12.0737 155.084 12.409 155.982 13.0816C157.442 14.19 158.17 16.0342 158.169 18.613C158.172 20.4592 157.714 21.9619 156.803 23.1232Z" fill="#BEBEBE"/>
<path d="M40.0366 9.26898C38.0802 8.381 35.8403 7.93804 33.3194 7.93701C29.4465 7.93804 26.7139 8.83729 25.1235 10.6394C24.1243 11.794 23.5613 13.2664 23.4342 15.0542L29.2158 15.0547C29.3593 14.2667 29.6475 13.6392 30.0704 13.1777C30.6682 12.5523 31.6818 12.239 33.1189 12.241C34.3986 12.239 35.3706 12.3954 36.031 12.7163C36.6924 13.0362 37.0215 13.6151 37.023 14.4543C37.0225 15.1429 36.5908 15.6489 35.7311 15.9724C35.2512 16.1616 34.4509 16.3195 33.3378 16.4431L31.2809 16.6676C28.9471 16.9327 27.1835 17.371 25.9797 17.9817C23.7895 19.1126 22.6959 20.9347 22.6964 23.4485C22.6954 25.3905 23.3757 26.8902 24.7374 27.9473C26.1002 29.0045 27.8238 29.5331 29.9136 29.5305C31.5496 29.5315 33.0169 29.2014 34.3119 28.5385C35.3973 27.9745 36.1386 27.4915 36.9713 26.6923L36.9707 29.531H42.9728L42.9738 14.3041C42.9749 11.8365 41.9977 10.158 40.0366 9.26898ZM36.5724 20.9317C36.5314 22.724 35.5301 23.954 34.4247 24.6292C33.3199 25.3075 32.1151 25.6464 30.8046 25.6464C29.9771 25.6474 29.2788 25.4423 28.7 25.0358C28.1232 24.6266 27.8336 23.9678 27.8351 23.0516C27.8367 22.0263 28.3047 21.2695 29.2512 20.7794C29.8085 20.4918 30.7282 20.2477 32.0089 20.0488L33.3732 19.8212C34.0566 19.7109 34.5903 19.5894 34.9815 19.4572C35.3717 19.3269 36.1874 19.1537 36.5729 18.9404L36.5724 20.9317Z" fill="#BEBEBE"/>
<path d="M88.8852 9.64754C87.3364 8.50424 85.3466 7.93362 82.9165 7.93311C80.9744 7.93259 79.3676 8.35966 78.1028 9.20918C77.3984 9.68752 76.6468 10.4679 75.8572 11.5532L75.8562 7.93361H69.8752L69.8746 29.5261L76.0551 29.5271L76.0546 18.1141C76.0551 16.8088 76.2551 15.7388 76.657 14.9001C77.4307 13.3112 78.857 12.5171 80.937 12.5186C82.6309 12.5181 83.7773 13.0615 84.3812 14.1433C84.7088 14.7375 84.8765 15.5881 84.8754 16.6965L84.8739 29.5266L91.2046 29.5276L91.2041 15.3246C91.2051 12.6801 90.432 10.7888 88.8852 9.64754Z" fill="#BEBEBE"/>
<path d="M113.618 11.1446C111.703 9.00416 108.794 7.93367 104.893 7.93213C100.992 7.93315 98.083 9.00314 96.1711 11.1452C94.2562 13.2872 93.2975 15.8183 93.297 18.7402C93.298 21.7107 94.2573 24.2506 96.1696 26.3623C98.0845 28.4756 100.995 29.5302 104.89 29.5292C108.794 29.5282 111.702 28.4762 113.616 26.3608C115.53 24.2516 116.49 21.7102 116.489 18.7397C116.489 15.8189 115.531 13.2846 113.618 11.1446ZM108.87 23.438C107.94 24.5392 106.607 25.0878 104.873 25.0873C103.137 25.0873 101.803 24.5366 100.865 23.4364C99.9276 22.3346 99.4575 20.7684 99.458 18.7427C99.4585 16.7109 99.9286 15.1482 100.865 14.0531C101.804 12.9616 103.139 12.4105 104.873 12.411C106.608 12.411 107.939 12.9586 108.872 14.0526C109.799 15.1503 110.264 16.7099 110.265 18.7391C110.263 20.7699 109.798 22.3352 108.87 23.438Z" fill="#BEBEBE"/>
<path d="M64.7719 9.64742C63.2256 8.5072 61.2358 7.93606 58.8031 7.93555C56.8595 7.93401 55.2517 8.3621 53.989 9.21316C53.2855 9.68996 52.538 10.4708 51.7418 11.5536L51.7449 7.93657H45.7623L45.7639 29.5321L51.9382 29.5296V18.1165C51.9361 16.8112 52.1407 15.7387 52.5442 14.9004C53.3163 13.3167 54.7421 12.5205 56.8252 12.5205C58.5155 12.5221 59.665 13.0635 60.2679 14.1473C60.5955 14.74 60.7606 15.5905 60.7611 16.7005L60.7601 29.5306L67.0913 29.529L67.0892 15.3275C67.0908 12.6826 66.3171 10.7907 64.7719 9.64742Z" fill="#BEBEBE"/>
<path d="M137.588 9.64542C136.04 8.50725 134.052 7.93508 131.617 7.93457C129.676 7.93406 128.071 8.3601 126.808 9.20912C126.102 9.69002 125.354 10.4708 124.561 11.5542L124.561 7.9356H118.578L118.578 29.5296L124.755 29.5301L124.753 18.1151C124.754 16.8077 124.959 15.7403 125.359 14.899C126.133 13.3142 127.562 12.518 129.638 12.5201C131.332 12.5196 132.48 13.061 133.084 14.1438C133.411 14.7405 133.577 15.5911 133.579 16.7005L133.578 29.5301L139.907 29.5296L139.908 15.3245C139.91 12.6811 139.136 10.7887 137.588 9.64542Z" fill="#BEBEBE"/>
<path d="M196.17 0.931641H190.155V29.5285H196.17V0.931641Z" fill="#BEBEBE"/>
<path d="M10.9199 12.4513C12.2785 12.4472 13.3141 12.8312 13.9176 13.6797C14.3477 14.2842 14.3749 14.4615 14.5892 15.0517H20.6036C20.2739 12.1432 19.2388 10.7902 17.4915 9.64995C15.7397 8.50358 13.4967 7.93141 10.7553 7.93705C7.52997 7.94423 5.00291 8.92142 3.17569 10.8717C1.34538 12.8245 0.431764 15.5515 0.437404 19.0522C0.441505 22.157 1.27668 24.679 2.93934 26.6231C4.60302 28.5698 7.19262 29.5393 10.7122 29.5316C14.2303 29.5259 16.8814 28.3529 18.6712 26.0171C19.7915 24.5651 20.4718 23.0281 20.6041 21.4034L14.8122 21.4162C14.6943 22.4898 14.257 23.3624 13.6961 24.0412C13.1342 24.7138 12.1837 25.0548 10.843 25.0563C8.95473 25.0583 7.6684 24.215 6.98036 22.5154C6.60559 21.6069 6.41384 20.4062 6.41128 18.9112C6.40718 17.3413 6.59277 16.0868 6.96858 15.1393C7.67404 13.3506 8.99472 12.4513 10.9199 12.4513Z" fill="#BEBEBE"/>
<path d="M184.453 9.26458C182.496 8.3766 180.257 7.93364 177.736 7.93262C173.863 7.93364 171.13 8.8329 169.54 10.635C168.541 11.7896 167.978 13.262 167.85 15.0498L173.632 15.0503C173.776 14.2623 174.064 13.6348 174.487 13.1733C175.085 12.5479 176.098 12.2346 177.535 12.2366C178.815 12.2346 179.787 12.391 180.447 12.7119C181.109 13.0318 181.438 13.6107 181.439 14.4499C181.439 15.1385 181.007 15.6445 180.147 15.968C179.667 16.1572 178.867 16.3151 177.754 16.4387L175.697 16.6632C173.363 16.9283 171.6 17.3666 170.396 17.9773C168.206 19.1083 167.112 20.9304 167.113 23.4441C167.112 25.3861 167.792 26.8858 169.154 27.9429C170.516 29.0001 172.24 29.5287 174.33 29.5261C175.966 29.5272 177.433 29.197 178.728 28.5341C179.814 27.9701 180.555 27.4872 181.388 26.6879L181.387 29.5266H187.389L187.39 14.2997C187.391 11.8316 186.414 10.1531 184.453 9.26458ZM180.989 20.9268C180.948 22.7191 179.946 23.9491 178.841 24.6243C177.736 25.3026 176.531 25.6415 175.221 25.6415C174.393 25.6425 173.695 25.4374 173.116 25.0309C172.539 24.6217 172.25 23.9629 172.251 23.0467C172.253 22.0214 172.721 21.2646 173.667 20.7745C174.225 20.4869 175.144 20.2428 176.425 20.0439L177.789 19.8163C178.473 19.706 179.007 19.5845 179.398 19.4523C179.788 19.322 180.604 19.1487 180.989 18.9355L180.989 20.9268Z" fill="#BEBEBE"/>
<path d="M218.252 16.108C218.005 14.5135 217.464 13.1077 216.632 11.9008C215.712 10.5258 214.541 9.52605 213.124 8.88878C211.705 8.25099 210.114 7.93313 208.346 7.93262C205.37 7.93262 202.949 8.87341 201.082 10.757C199.219 12.6391 198.285 15.3446 198.288 18.8714C198.286 22.6335 199.319 25.3508 201.385 27.0232C203.452 28.695 205.837 29.5266 208.542 29.5282C211.815 29.5271 214.359 28.5371 216.18 26.5571C217.35 25.3108 218.006 24.087 218.149 22.8765L212.729 22.8781C212.411 23.4759 212.049 23.9434 211.634 24.2803C210.88 24.9006 209.892 25.2118 208.685 25.2103C207.546 25.2118 206.569 24.958 205.759 24.4464C204.425 23.625 203.716 22.1921 203.634 20.1505L218.427 20.149C218.452 18.3925 218.394 17.0411 218.252 16.108ZM203.763 16.6376C203.956 15.3128 204.43 14.2633 205.177 13.4856C205.929 12.7104 206.985 12.3228 208.349 12.3228C209.602 12.3238 210.65 12.6883 211.498 13.4194C212.344 14.1516 212.817 15.2262 212.912 16.6391L203.763 16.6376Z" fill="#BEBEBE"/>
<path d="M219.563 9.27843C219.563 10.0418 218.963 10.6407 218.184 10.6407C217.413 10.6407 216.797 10.0418 216.797 9.27843C216.797 8.53195 217.413 7.93262 218.184 7.93262C218.963 7.93262 219.563 8.53195 219.563 9.27843ZM217.141 9.27843C217.141 9.87777 217.585 10.3541 218.192 10.3541C218.783 10.3541 219.218 9.87776 219.218 9.28714C219.218 8.68781 218.783 8.20383 218.184 8.20383C217.585 8.20331 217.141 8.68781 217.141 9.27843ZM217.97 9.9844H217.659V8.63858C217.782 8.61397 217.954 8.59758 218.176 8.59758C218.43 8.59758 218.545 8.63858 218.644 8.696C218.717 8.75291 218.775 8.86008 218.775 8.99132C218.775 9.13898 218.66 9.25382 218.496 9.30304V9.31894C218.627 9.36867 218.701 9.46659 218.742 9.64757C218.783 9.85264 218.808 9.93519 218.84 9.9839H218.504C218.463 9.93468 218.438 9.81162 218.397 9.65525C218.372 9.5076 218.29 9.44198 218.118 9.44198H217.97V9.9844ZM217.979 9.22153H218.126C218.299 9.22153 218.438 9.1641 218.438 9.02413C218.438 8.9016 218.348 8.81958 218.15 8.81958C218.069 8.81958 218.011 8.82777 217.978 8.83546V9.22153H217.979Z" fill="#BEBEBE"/>
</svg>
