<svg width="323" height="151" viewBox="0 0 323 151" fill="none" xmlns="http://www.w3.org/2000/svg">
<path d="M309.681 139.775C313.245 140.7 315.973 141.532 317.448 142.16C316.838 142.083 314.019 141.577 309.681 140.861V139.775ZM299.601 137.411C284.939 134.26 265.015 131.035 251.703 131.035C230.032 130.485 218.179 133.327 199.442 138.489C180.934 143.374 167.324 145.02 143.513 139.806C134.12 137.914 123.125 135.851 113.498 135.549C103.324 135.229 90.9417 137.261 82.511 139.066C77.2369 140.206 74.7006 140.924 69.8193 142.445C78.3421 141.241 104.105 138.277 119.332 138.528C129.489 138.563 140.152 140.313 149.626 142.445C167.551 146.518 181.327 145.627 196.796 142.449C208.123 140.121 219.171 137.296 230.637 135.641C249.873 132.804 280.316 136.404 299.6 139.278V137.411H299.601Z" fill="#96D2D6"/>
<path d="M19.5098 105.618C21.5458 106.633 23.6347 107.367 25.2102 108.869C28.648 112.146 28.9862 115.411 24.6975 118.385C20.4643 121.321 15.7452 123.367 10.67 124.448C8.24449 124.966 6.56471 123.852 6.75951 121.526C6.92822 119.512 5.45464 118.287 5.13841 116.555C4.51247 113.125 4.34701 109.688 4.54914 106.219C4.63635 104.724 4.79936 103.277 2.73733 102.759C1.41127 102.426 1.13009 101.154 1.27516 99.8816C1.31021 99.5721 1.49441 99.1926 1.7813 98.7789C2.34774 97.9621 3.5874 97.0744 4.61597 96.2665C5.149 95.8471 5.38862 94.733 5.90535 94.4284C6.63236 93.9993 7.48651 94.6288 7.94945 94.6101C8.81012 94.575 9.52002 94.0155 10.3571 93.7484C12.71 92.9959 14.8096 92.5773 17.3076 92.4316C19.7055 92.2915 22.2907 92.1718 23.4815 94.5653C24.6071 96.8268 24.2615 99.2179 22.8808 101.319C21.9166 102.787 20.7153 104.098 19.5098 105.618ZM13.7435 110.6C8.62837 110.873 8.2396 111.468 9.91041 116.484C9.97317 116.671 10.0987 116.853 10.1028 117.041C10.1345 118.467 10.9113 118.301 11.8828 117.948C14.7664 116.902 17.5839 115.717 20.2686 114.223C21.9721 113.276 21.5882 112.533 20.06 111.895C18.0403 111.052 15.9547 110.514 13.7435 110.6ZM9.13206 102.396C9.51186 102.78 8.63489 104.615 10.4915 103.862C13.2431 102.745 15.7892 101.22 17.98 99.1747C18.3387 98.84 18.7755 98.353 18.4055 97.9197C18.1569 97.629 17.5147 97.5166 17.0794 97.5704C14.8202 97.8481 12.6261 98.4157 10.5861 99.4483C9.51105 99.9924 9.06849 100.955 9.13206 102.396ZM140.389 93.0961C134.573 94.2648 128.603 94.5734 122.912 96.4872C119.211 97.7324 118.486 99.5216 121.033 102.511C121.733 103.335 122.466 104.036 121.757 105.034C119.085 108.798 119.837 113.498 118.193 117.595C116.734 121.232 119.504 124.185 123.289 123.351C129.383 122.01 135.549 121.415 141.746 121.037C143.496 120.93 145.057 120.627 145.148 118.644C145.233 116.773 143.592 116.381 142.102 116.032C137.292 114.905 132.473 115.605 127.654 115.923C126.754 115.983 125.466 116.741 125.072 115.495C124.72 114.383 125.332 113.121 126.254 112.321C126.821 111.831 127.648 111.586 128.4 111.373C131.707 110.437 135.021 109.519 138.351 108.666C139.806 108.293 140.742 107.351 140.566 105.985C140.375 104.51 138.843 104.547 137.71 104.571C135.341 104.622 132.977 104.934 130.609 104.945C129.697 104.949 128.174 105.88 127.92 104.195C127.738 102.99 128.582 102.074 129.84 101.534C132.564 100.365 135.418 99.6177 138.204 98.66C141.009 97.6958 146.458 95.6728 146.458 94.4284C146.458 93.1841 142.426 92.6865 140.389 93.0961ZM204.004 93.6434C206.851 93.4903 210.898 94.2436 214.535 96.5475C218.995 99.3742 220.148 107.449 216.694 111.475C211.07 118.03 203.503 121.162 195.278 121.664C189.966 121.988 184.594 119.668 181.249 115.062C176.366 108.336 180.471 99.2846 188.041 96.1191C192.686 94.1776 197.619 93.7672 204.004 93.6434ZM198.576 98.4369C195.513 98.9996 190.934 98.8547 187.412 102.805C185.519 104.929 183.284 106.481 183.836 109.697C184.415 113.062 186.877 114.626 189.776 115.672C196.392 118.057 209.351 113.725 213.275 107.859C215.388 104.699 214.572 101.835 211.185 99.9924C207.63 98.059 203.849 97.9857 198.576 98.4369ZM238.133 111.138C236.707 108.315 235.348 105.458 234.024 102.585C232.804 99.9378 231.135 97.6078 228.988 95.6769C227.135 94.0099 224.828 94.347 224.126 96.4905C222.098 102.676 220.747 109.087 217.61 114.891C217.021 115.98 217.686 117.045 218.727 117.644C219.649 118.175 220.611 118.198 221.433 117.333C222.25 116.474 222.889 115.603 223.233 114.369C224.276 110.628 225.555 106.954 226.83 102.975C228.723 104.825 229.51 106.907 230.49 108.929C232.983 114.08 235.389 119.339 239.822 123.216C242.616 125.661 245.41 124.659 246.248 121.128C248.132 113.187 250.08 105.261 252.026 97.3358C252.501 95.4016 252.822 93.3078 250.433 92.6857C247.839 92.0097 247.678 94.4048 247.476 96.045C246.944 100.395 245.623 104.53 244.361 108.684C243.629 111.092 243.121 113.62 241.461 115.753C239.774 114.509 238.969 112.794 238.133 111.138ZM98.673 116.818C96.5083 116.637 93.9393 116.528 93.0419 114.3C92.1813 112.164 93.7078 110.166 94.9817 108.382C95.095 108.223 95.267 108.106 95.3868 107.95C98.8955 103.378 103.677 100.643 109.039 98.9776C111.668 98.1608 110.232 96.4742 110.271 95.1679C110.315 93.6776 109.103 93.4422 107.942 93.7427C99.2965 95.9807 92.0745 100.428 88.7932 108.983C85.7645 116.879 89.0344 121.403 97.0095 123.262C103.491 124.773 109.11 122.226 114.785 119.798C116.151 119.214 117.37 118.341 116.762 116.691C116.172 115.09 114.646 115.587 113.431 115.829C110.024 116.507 106.586 116.847 103.121 116.842C101.637 116.842 100.146 116.941 98.673 116.818ZM152.479 115.182C153.027 109.084 153.538 102.984 154.007 96.8798C154.159 94.9097 153.722 92.715 151.61 92.412C149.559 92.118 149.147 94.2102 148.954 95.9432C148.09 103.693 147.28 111.45 146.335 119.19C145.847 123.193 147.352 124.681 151.451 123.852C156.372 122.856 161.275 121.766 166.201 120.791C169.299 120.178 172.439 119.767 175.532 119.133C176.868 118.858 178.436 118.407 178.066 116.512C177.743 114.862 176.197 114.936 174.966 114.91C173.396 114.879 171.808 114.998 170.248 115.207C165.058 115.901 159.878 116.665 154.124 117.484C152.613 117.984 152.324 116.905 152.479 115.182ZM30.9676 119.269C29.4801 119.126 28.4964 116.592 29.476 115.133C34.015 108.371 36.5587 100.63 40.2361 93.4479C41.3641 91.2442 42.7635 91.2084 44.3373 93.5961C46.9079 97.4971 48.7686 101.825 50.1566 106.248C51.6889 111.133 52.4469 116.254 54.7127 120.92C55.4992 122.54 54.8056 124.095 53.4266 124.701C51.4558 125.567 50.4973 123.817 50.0654 122.316C48.6276 117.318 45.502 114.438 40.2907 113.828C38.6011 113.63 36.6581 113.845 35.2677 114.603C33.9881 115.301 33.2219 116.474 32.5463 117.868C32.1632 118.656 31.7997 119.215 30.9676 119.269ZM42.5606 98.4857C42.0618 98.3782 41.4733 99.7179 41.0307 100.368C39.4325 102.713 38.5971 105.304 37.2987 107.628C36.8007 108.52 36.1609 109.835 37.522 109.625C40.0935 109.228 43.021 109.796 45.3284 110.662C45.9975 110.912 46.8819 110.978 46.6129 109.833C45.8158 106.445 45.1173 103.008 43.374 99.8311C43.1262 99.3767 43.0594 98.5932 42.5606 98.4857ZM277.492 121.816C277.162 123.104 276.921 124.323 275.566 124.709C274.25 125.084 273.52 124.186 272.971 123.222C272.487 122.373 272.182 121.425 271.781 120.53C268.98 114.273 262.898 111.971 256.793 114.844C255.779 115.321 255.582 116.356 255.161 117.213C254.648 118.259 254.376 119.805 252.769 118.841C251.491 118.075 250.873 116.488 251.785 115.241C255.566 110.074 257.351 103.93 260.324 98.375C261.113 96.9017 261.686 95.3145 262.449 93.8258C262.868 93.0065 262.859 91.7328 264.166 91.6652C265.489 91.5968 266.374 92.3819 267.039 93.4422C269.521 97.4026 271.22 101.723 272.596 106.149C274.116 111.038 274.881 116.159 277.16 120.815C277.327 121.16 277.404 121.547 277.492 121.816ZM269.132 109.993C268.274 106.145 267.362 102.711 265.767 99.5062C265.163 98.2935 264.583 98.5444 263.879 99.5396C262.101 102.05 261.11 104.957 259.669 107.635C259.096 108.698 259.541 109.489 260.761 109.287C263.227 108.88 265.422 109.615 267.634 110.504C268.375 110.801 269.294 111.045 269.132 109.993ZM86.4964 119.512C84.7506 118.582 82.8932 117.927 80.942 117.487C76.5278 116.494 72.0027 115.923 67.4875 114.243C68.538 112.637 69.8568 112.106 70.966 111.316C74.4658 108.825 77.527 105.933 79.6143 102.107C80.8238 99.8906 81.3275 97.6884 79.8091 95.4179C78.0617 92.8054 75.7258 91.5406 72.486 92.0105C69.8127 92.3982 67.353 93.3298 64.8459 94.281C62.4286 95.198 60.7895 95.8365 59.6558 96.5467C59.6355 96.5589 59.6159 96.5662 59.5955 96.5784C57.1814 98.0924 56.8758 99.0582 56.5579 100.148C56.4446 100.536 56.478 100.935 56.5677 101.288C56.7299 101.93 57.038 103.123 57.02 103.506C56.9996 103.944 56.9809 104.412 56.9622 104.912C56.8236 108.569 56.4935 112.222 56.4193 115.879C56.3672 118.433 55.9548 121.021 56.7022 123.55C57.2531 125.414 58.7316 126.079 60.3885 125.709C62.0072 125.348 62.2444 123.831 62.0357 122.346C61.9265 121.566 61.6576 120.804 61.5793 120.022C61.4448 118.676 62.0284 118.156 63.3422 118.719C63.9779 118.991 64.5884 119.324 65.2249 119.593C71.6881 122.32 78.4912 123.403 85.4467 123.672C86.4866 123.711 87.7989 123.674 88.1558 122.363C88.5308 120.988 87.5755 120.087 86.4964 119.512ZM61.7594 111.171C61.5932 110.413 61.519 110.222 61.5133 110.028C61.4717 108.628 61.4913 107.224 61.6543 105.832C61.7969 104.612 62.0211 102.887 62.3837 101.984C62.7815 100.058 73.5815 97.7544 73.9099 97.7292C74.315 97.6982 74.6948 97.8139 74.9735 98.2707C75.4267 99.0126 74.7225 99.5591 74.3264 100.08C70.9456 104.526 66.5934 107.847 61.7594 111.171Z" fill="#96D2D6"/>
<path d="M204.307 14.1378C204.307 21.9462 197.973 28.2756 190.158 28.2756C182.344 28.2756 176.009 21.9462 176.009 14.1378C176.009 6.32943 182.344 0 190.157 0C197.972 0 204.306 6.32943 204.307 14.1378ZM160.913 31.3882V79.7393H178.187V62.6852L184.935 79.7393H190.157H195.379L202.128 62.6852V79.7393H219.401V31.3882H160.913Z" fill="#96D2D6"/>
<path d="M19.3462 79.7393H0.319336V31.3882H19.3462V79.7393ZM295.03 31.3882V46.1181L288.627 31.3882H287.923H270.003V79.7393H287.923V61.1004L295.03 79.7393H312.951V31.3882H295.03ZM140.159 31.3882V46.1181L133.755 31.3882H133.052H115.132V79.7393H133.052V61.1004L140.159 79.7393H158.079V31.3882H140.159ZM322.023 74.3098C321.825 73.8431 321.552 73.4327 321.203 73.0809C320.854 72.7291 320.441 72.4522 319.967 72.2502C319.493 72.049 318.979 71.9489 318.424 71.9489C317.885 71.9489 317.378 72.0499 316.903 72.2502C316.428 72.4522 316.016 72.7282 315.667 73.0809C315.318 73.4335 315.041 73.8431 314.837 74.3098C314.631 74.7772 314.529 75.2797 314.529 75.8188C314.529 76.358 314.632 76.8686 314.837 77.3499C315.041 77.8312 315.318 78.2539 315.667 78.6163C316.016 78.9787 316.428 79.2653 316.903 79.473C317.377 79.6815 317.885 79.7857 318.424 79.7857C318.964 79.7857 319.471 79.6815 319.946 79.473C320.42 79.2645 320.832 78.9787 321.181 78.6163C321.53 78.2539 321.807 77.8312 322.012 77.3499C322.217 76.8686 322.319 76.358 322.319 75.8188C322.319 75.2797 322.221 74.7772 322.023 74.3098ZM321.273 77.0746C321.115 77.4737 320.895 77.8239 320.614 78.126C320.334 78.4282 320.006 78.6692 319.633 78.8484C319.259 79.0284 318.856 79.1179 318.424 79.1179C317.993 79.1179 317.59 79.0284 317.216 78.8484C316.842 78.6684 316.514 78.4282 316.233 78.126C315.953 77.8247 315.734 77.4737 315.576 77.0746C315.418 76.6756 315.338 76.257 315.338 75.8188C315.338 75.3807 315.417 74.967 315.576 74.5793C315.734 74.1909 315.953 73.8537 316.233 73.5654C316.514 73.278 316.842 73.0499 317.216 72.8805C317.589 72.712 317.992 72.6273 318.424 72.6273C318.855 72.6273 319.259 72.712 319.633 72.8805C320.006 73.0491 320.334 73.2796 320.614 73.5711C320.895 73.8619 321.114 74.1998 321.273 74.5842C321.431 74.9686 321.51 75.3807 321.51 75.8188C321.51 76.257 321.431 76.6764 321.273 77.0746ZM319.19 76.5518C319.054 76.336 318.899 76.1601 318.727 76.0233C318.885 76.0013 319.038 75.9638 319.185 75.9101C319.332 75.8563 319.463 75.7822 319.579 75.6885C319.694 75.5957 319.788 75.4784 319.86 75.3384C319.931 75.1983 319.967 75.0313 319.967 74.8367C319.967 74.6355 319.927 74.4556 319.848 74.2976C319.769 74.1396 319.665 74.0085 319.534 73.9042C319.404 73.8 319.252 73.721 319.08 73.6672C318.906 73.6135 318.729 73.5866 318.549 73.5866H316.871V78.1252H317.551V76.077H317.789C317.997 76.077 318.242 76.3002 318.522 76.7456L319.418 78.1252H320.238L319.19 76.5518ZM319.023 75.3555C318.861 75.4703 318.551 75.5281 318.09 75.5281H317.551V74.1591H318.393C318.63 74.1591 318.835 74.2153 319.008 74.3261C319.181 74.4376 319.267 74.6087 319.267 74.8383C319.266 75.068 319.185 75.2406 319.023 75.3555ZM90.148 41.4989C88.4763 41.4989 87.1209 42.8532 87.1209 44.5235V66.2742C87.1209 67.9445 88.4763 69.2989 90.148 69.2989C91.8196 69.2989 93.175 67.9445 93.175 66.2742V44.5235C93.1742 42.8532 91.8196 41.4989 90.148 41.4989ZM111.988 40.805C111.988 43.4249 111.988 61.2755 111.988 69.298C111.988 77.3198 103.709 79.7393 101.661 79.7393C99.6129 79.7393 78.7245 79.7393 78.6348 79.7393C76.5867 79.7393 68.3084 77.3198 68.3084 69.298C68.3084 61.2763 68.3084 43.4257 68.3084 40.805C68.3084 38.1843 71.8831 31.3882 78.947 31.3882C86.0109 31.3882 94.2859 31.3882 101.35 31.3882H101.661V31.4069C108.513 31.6073 111.988 38.2242 111.988 40.805ZM240.35 79.7393H220.792L228.73 31.3882H244.283H259.837L267.775 79.7393H248.219L247.047 68.5985H241.522L240.35 79.7393ZM242.635 58.0114H245.933L244.604 45.3737C244.604 45.3737 244.528 45.2524 244.284 45.2524C244.04 45.2524 243.964 45.3786 243.964 45.3786L242.635 58.0114ZM65.5177 63.1999V79.7393H46.4908V66.2351V63.1999C46.4908 61.5296 45.1354 60.1752 43.4638 60.1752C42.868 60.1752 42.3163 60.3536 41.8476 60.6508V79.7393H22.8207V31.3882H41.8476C41.8476 31.3882 52.844 31.3882 57.0626 31.3882C61.2812 31.3882 66.05 33.9829 66.05 42.2033C66.05 50.4237 62.6358 52.7464 60.2755 54.1512C64.0923 55.8069 65.5177 57.7638 65.5177 63.1999ZM46.4908 45.2279C46.4908 43.5576 45.1354 42.2033 43.4638 42.2033C42.868 42.2033 42.3163 42.3817 41.8476 42.6789V48.6468C42.3163 48.944 42.868 49.1224 43.4638 49.1224C45.1354 49.1224 46.4908 47.768 46.4908 46.0977V45.2279Z" fill="white"/>
<path d="M314.425 128.695V122.099V121.634L311.967 121.216L311.888 121.203L309.492 120.796V114.433L312.474 112.056V112.045V111.987V105.721V105.553H312.092H308.066V103.875C308.066 103.875 308.066 101.014 308.066 96.8349L309.529 95.5612H308.066C308.066 90.6977 304.13 88.1926 301.368 88.1926V85.5508C301.368 84.2274 300.294 83.154 298.969 83.154C297.645 83.154 296.571 84.2274 296.571 85.5508V88.1926C295.335 88.1926 293.879 88.9631 292.653 90.1382L292.607 90.1252C292.581 90.1684 292.561 90.2123 292.535 90.2547C291.11 91.6693 290.023 93.6287 290.023 95.5604H288.783C288.783 95.5604 289.437 96.0434 290.023 96.462C290.023 99.9174 290.023 103.874 290.023 103.874V105.552H286.485H286.104V105.739V111.987V112.044V112.054L288.693 114.431V120.794L287.122 121.049L286.265 121.144V121.188L283.516 121.634V122.102V128.696H283.492H282.956V129.478L285.194 131.913V149.393C285.194 149.393 289.173 151.002 298.969 151.002C308.766 151.002 312.744 149.393 312.744 149.393V131.913L314.983 129.478V128.696H314.425V128.695ZM310.308 105.913C310.892 105.871 311.505 105.818 312.093 105.757V111.99L310.308 112.012V105.913ZM286.265 128.731L284.187 128.704V122.197C284.851 122.288 285.582 122.382 286.265 122.469V128.731ZM307.252 95.5604H306.781C306.891 94.3445 306.77 93.2981 306.481 92.3403C306.956 93.241 307.252 94.3128 307.252 95.5604ZM306.538 97.0613C306.819 97.0613 307.058 97.0613 307.252 97.0613V101.366C307.09 100.314 306.803 99.0452 306.393 97.7129C306.453 97.4856 306.49 97.278 306.538 97.0613ZM304.913 111.939H301.885C301.885 111.939 301.885 109.448 301.885 108.131C301.885 106.813 303.009 106.569 303.4 106.569C303.79 106.569 304.914 106.666 304.914 108.033C304.913 109.399 304.913 111.939 304.913 111.939ZM302.286 101.199C301.59 99.8539 300.984 98.4483 300.394 97.0613C301.621 97.0613 302.82 97.0613 303.883 97.0613C303.408 98.6461 302.837 100.058 302.286 101.199ZM304.493 97.1892C304.746 97.8839 304.983 98.6217 305.205 99.3905C304.811 100.437 304.299 101.589 303.634 102.882C303.594 102.937 303.552 103 303.511 103.059H303.342C303.098 102.669 302.864 102.27 302.64 101.863C303.265 100.619 303.947 99.024 304.493 97.1892ZM302.63 103.059H302.003C302.1 102.886 302.198 102.711 302.303 102.514C302.409 102.699 302.52 102.878 302.63 103.059ZM299.969 95.5604C300.57 94.0465 301.147 92.57 301.596 91.4136C302.344 92.4918 303.119 93.895 303.837 95.5604H299.969ZM299.523 95.0303C299.475 94.9211 299.428 94.8112 299.38 94.7021C299.836 93.671 300.304 92.6693 300.822 91.7198C300.409 92.7793 299.966 93.9097 299.523 95.0303ZM299.727 97.0613C300.41 98.6714 301.115 100.313 301.951 101.873C301.85 102.068 301.751 102.256 301.655 102.431C301.193 101.496 300.328 99.4206 299.379 97.0613C299.495 97.0613 299.611 97.0613 299.727 97.0613ZM304.223 103.059C304.718 102.09 305.13 101.196 305.473 100.363C305.695 101.223 305.896 102.12 306.064 103.059H304.223ZM305.851 99.3978C305.93 99.1796 306.011 98.9613 306.08 98.752C306.543 100.437 306.797 101.988 306.797 103.059H306.746L306.666 102.942C306.442 101.689 306.164 100.508 305.851 99.3978ZM305.501 91.46C306.045 92.6465 306.313 93.9455 306.162 95.5604H305.633C305.482 95.1809 305.323 94.8039 305.154 94.4317C305.327 93.4797 305.45 92.4869 305.501 91.46ZM305.549 97.0613C305.621 97.2698 305.697 97.4791 305.763 97.6868C305.7 97.9181 305.631 98.1551 305.553 98.3986C305.407 97.936 305.253 97.4938 305.096 97.0613C305.252 97.0613 305.402 97.0613 305.549 97.0613ZM304.941 95.448C304.957 95.4855 304.97 95.523 304.985 95.5604H304.915C304.923 95.523 304.933 95.4863 304.941 95.448ZM302.471 89.1496C303.298 89.3507 304.154 89.7701 304.912 90.3988C304.913 91.4575 304.835 92.4869 304.693 93.4748C303.987 92.1009 303.148 90.8459 302.181 89.9004C302.333 89.5087 302.432 89.2489 302.471 89.1496ZM301.934 90.5422C302.929 91.5781 303.798 92.9715 304.514 94.4903C304.467 94.7387 304.422 94.9871 304.368 95.2298C303.569 93.3966 302.693 91.8892 301.854 90.7474C301.881 90.679 301.908 90.6073 301.934 90.5422ZM301.369 89.0062C301.511 89.0062 301.656 89.016 301.805 89.0307C301.726 89.1414 301.647 89.2513 301.568 89.3621C301.405 89.2326 301.238 89.117 301.069 89.0054H301.369V89.0062ZM301.216 89.8784C301.209 89.8898 301.202 89.9029 301.194 89.9143C301.137 89.8483 301.079 89.7775 301.024 89.7156C301.089 89.7644 301.151 89.8263 301.216 89.8784ZM298.61 89.0062H299.329C299.767 89.2701 300.292 89.7498 300.862 90.4404C300.186 91.552 299.595 92.7418 299.046 93.9544C298.479 92.7035 297.868 91.4795 297.166 90.3386C297.7 89.705 298.194 89.2579 298.61 89.0062ZM299.087 95.5604H299.004C299.017 95.5278 299.031 95.4945 299.046 95.4619C299.059 95.4945 299.074 95.5278 299.087 95.5604ZM294.103 95.5604C294.852 93.8225 295.664 92.3696 296.44 91.2727C296.898 92.4495 297.497 93.983 298.122 95.5604H294.103ZM297.696 97.0613C297.107 98.4483 296.501 99.8531 295.805 101.198C295.256 100.058 294.685 98.6461 294.211 97.0613C295.245 97.0613 296.445 97.0613 297.696 97.0613ZM297.27 91.7214C297.788 92.6693 298.255 93.671 298.711 94.7021C298.663 94.8112 298.616 94.9203 298.568 95.0294C298.124 93.9097 297.682 92.7801 297.27 91.7214ZM296.833 89.8133C296.829 89.8076 296.826 89.8011 296.822 89.7954C296.853 89.7701 296.884 89.7392 296.916 89.7147C296.889 89.7457 296.861 89.7815 296.833 89.8133ZM296.571 89.0062H296.875C296.738 89.0958 296.601 89.1846 296.468 89.2864C296.408 89.2009 296.347 89.117 296.286 89.0315C296.382 89.0209 296.479 89.0062 296.571 89.0062ZM296.185 90.6146C295.351 91.7271 294.474 93.2044 293.67 95.0083C293.618 94.7623 293.58 94.505 293.535 94.2533C294.256 92.7711 295.126 91.4233 296.113 90.4298C296.136 90.49 296.161 90.5511 296.185 90.6146ZM295.629 89.1732C295.669 89.2774 295.751 89.49 295.87 89.7994C294.914 90.7026 294.08 91.9079 293.372 93.2402C293.266 92.4381 293.207 91.6074 293.192 90.7588C293.958 90.0095 294.819 89.4387 295.629 89.1732ZM293.098 95.2078C293.123 95.3259 293.149 95.4423 293.174 95.5604H292.956C293.004 95.4432 293.047 95.3243 293.098 95.2078ZM292.59 91.46C292.636 92.4006 292.75 93.3086 292.9 94.1874C292.688 94.6385 292.496 95.0987 292.311 95.5612H291.929C291.776 93.9422 292.047 92.6457 292.59 91.46ZM292.844 97.0613C292.715 97.4197 292.588 97.7862 292.466 98.164C292.39 97.914 292.32 97.6697 292.26 97.4327C292.301 97.3089 292.348 97.1851 292.39 97.0613C292.533 97.0613 292.685 97.0613 292.844 97.0613ZM291.385 93.2866C291.267 93.9805 291.248 94.7354 291.323 95.5604H290.839C290.839 94.8047 291.045 94.0286 291.385 93.2866ZM288.818 128.762L287.124 128.741V122.575C288.096 122.696 288.818 122.781 288.818 122.781V128.762ZM289.166 112.026L286.486 111.992V105.776C287.408 105.867 288.39 105.937 289.166 105.985V112.026ZM290.592 112.044L290.024 112.036V106.033C290.375 106.052 290.592 106.062 290.592 106.062V112.044ZM290.839 97.0182C290.883 97.0434 290.915 97.0605 290.926 97.0605C290.938 97.0605 291.172 97.0605 291.561 97.0605C291.588 97.1868 291.605 97.3048 291.637 97.4343C291.289 98.5256 291.024 99.5811 290.839 100.52V97.0182ZM291.196 103.059H291.145C291.145 101.933 291.425 100.277 291.934 98.493C292.002 98.7097 292.08 98.9344 292.161 99.1617C291.818 100.34 291.516 101.598 291.275 102.942L291.196 103.059ZM291.877 103.059C292.06 102.035 292.279 101.056 292.526 100.127C292.886 101.026 293.332 101.999 293.872 103.059H291.877ZM294.748 103.059H294.575C294.544 103.014 294.509 102.963 294.478 102.919C293.756 101.516 293.207 100.277 292.801 99.1608C293.019 98.4255 293.253 97.7267 293.499 97.0605C293.522 97.0605 293.543 97.0605 293.566 97.0605C294.117 98.9458 294.812 100.59 295.448 101.862C295.227 102.269 294.993 102.668 294.748 103.059ZM295.461 103.059C295.57 102.878 295.681 102.698 295.787 102.513C295.891 102.71 295.99 102.886 296.087 103.059H295.461ZM296.141 101.872C296.977 100.313 297.681 98.6706 298.364 97.0613C298.48 97.0613 298.596 97.0613 298.713 97.0613C297.764 99.4206 296.9 101.496 296.437 102.431C296.341 102.256 296.242 102.068 296.141 101.872ZM296.791 103.059C297.193 102.352 298.081 100.249 299.045 97.866C300.009 100.249 300.898 102.352 301.299 103.059H296.791ZM300.749 120.568C300.749 117.733 303.166 117.209 304.006 117.209C304.846 117.209 307.263 117.419 307.263 120.358C307.263 123.297 307.263 128.761 307.263 128.761H300.749C300.749 128.762 300.749 123.403 300.749 120.568ZM307.755 148.473H302.388C302.388 148.473 302.388 140.949 302.388 138.614C302.388 136.279 304.379 135.847 305.071 135.847C305.764 135.847 307.755 136.019 307.755 138.441C307.755 140.863 307.755 148.473 307.755 148.473ZM307.803 106.063C307.803 106.063 308.5 106.032 309.45 105.972V112.023L307.803 112.044V106.063ZM311.888 128.73L309.45 128.762V122.781C309.45 122.781 310.562 122.635 311.888 122.454V128.73ZM312.747 122.335C313.087 122.288 313.425 122.241 313.754 122.194V128.704L312.747 128.718V122.335Z" fill="white"/>
<path d="M0.370605 138.726C5.33251 137.496 13.6825 136.203 19.2435 135.527C29.2626 134.309 39.2973 133.221 49.4347 134.137C59.0268 135.005 68.4501 136.878 77.7154 139.318C96.4285 144.246 115.122 143.797 133.885 140.008C151.011 136.549 168.233 134.309 185.761 135.399C204.589 136.569 223.016 140.153 241.305 144.569C244.808 145.414 248.286 146.362 251.702 147.535C241.661 145.921 231.621 144.288 221.576 142.697C214.149 141.521 206.659 140.925 199.178 140.204C187.934 139.121 176.72 138.319 165.406 139.278C153.863 140.257 142.454 142.148 131.01 143.806C115.38 146.07 99.828 146.383 84.4997 141.972C75.1684 139.287 64.1989 137.768 54.0616 137.137C38.8776 135.991 9.6644 138.293 0.370605 138.726Z" fill="white"/>
</svg>
