<svg width="21" height="19" viewBox="0 0 21 19" fill="none" xmlns="http://www.w3.org/2000/svg">
<path d="M5.52954 1.93445H2.56079C2.23692 1.93445 1.97485 2.19652 1.97485 2.52039C1.97485 2.84425 2.23692 3.10632 2.56079 3.10632H5.52954C5.85341 3.10632 6.11548 2.84425 6.11548 2.52039C6.11548 2.19652 5.85341 1.93445 5.52954 1.93445Z" fill="#89D7D7"/>
<path d="M5.52954 6.62195H2.56079C2.23692 6.62195 1.97485 6.88402 1.97485 7.20789C1.97485 7.53175 2.23692 7.79382 2.56079 7.79382H5.52954C5.85341 7.79382 6.11548 7.53175 6.11548 7.20789C6.11548 6.88402 5.85341 6.62195 5.52954 6.62195Z" fill="#89D7D7"/>
<path d="M4.35767 4.2782H1.38892C1.06505 4.2782 0.802979 4.54027 0.802979 4.86414C0.802979 5.188 1.06505 5.45007 1.38892 5.45007H4.35767C4.68153 5.45007 4.9436 5.188 4.9436 4.86414C4.9436 4.54027 4.68153 4.2782 4.35767 4.2782Z" fill="#89D7D7"/>
<path d="M19.6311 7.20788H16.0764V4.86413C16.0764 3.83499 14.8175 3.29312 14.0756 4.03593L9.3885 8.72308C8.93072 9.18085 8.93072 9.92241 9.3885 10.3802L12.0756 13.0673L8.80256 16.3403C8.34479 16.798 8.34479 17.5396 8.80256 17.9974C9.26029 18.4551 10.0019 18.4551 10.4597 17.9974L14.5612 13.8958C15.019 13.438 15.019 12.6965 14.5612 12.2387L11.8742 9.55163L13.7327 7.69312V8.37976C13.7327 9.02691 14.2574 9.55163 14.9046 9.55163H19.6311C20.2783 9.55163 20.803 9.02691 20.803 8.37976C20.803 7.73261 20.2783 7.20788 19.6311 7.20788Z" fill="#89D7D7"/>
<path d="M11.746 1.25241C11.2802 0.942843 10.6622 1.00409 10.2674 1.3989L7.04475 4.62155C6.58697 5.07933 6.58697 5.82089 7.04475 6.27866C7.50252 6.73644 8.24412 6.7364 8.70189 6.27862L11.2453 3.73519L12.1021 4.35237L13.2469 3.20761C13.4384 3.01612 13.6642 2.86749 13.9112 2.75144L11.746 1.25241Z" fill="#89D7D7"/>
<path d="M8.55994 11.2087C8.26303 10.9118 8.06482 10.5464 7.96033 10.1512L1.77131 16.3403C1.31354 16.798 1.31354 17.5396 1.77131 17.9974C2.22904 18.4551 2.97064 18.4552 3.42842 17.9974L9.38849 12.0373L8.55994 11.2087Z" fill="#89D7D7"/>
<path d="M16.6624 3.69226C17.6332 3.69226 18.4202 2.90526 18.4202 1.93445C18.4202 0.963635 17.6332 0.176636 16.6624 0.176636C15.6915 0.176636 14.9045 0.963635 14.9045 1.93445C14.9045 2.90526 15.6915 3.69226 16.6624 3.69226Z" fill="#89D7D7"/>
</svg>
