<svg width="17" height="21" viewBox="0 0 17 21" fill="none" xmlns="http://www.w3.org/2000/svg">
<path d="M8.41657 4.0141C6.15552 4.0141 4.31592 5.85371 4.31592 8.11476C4.31592 10.376 6.15552 12.2156 8.41657 12.2156C10.6778 12.2156 12.5174 10.376 12.5174 8.11476C12.5174 5.85371 10.6778 4.0141 8.41657 4.0141ZM8.41657 11.0254C6.81165 11.0254 5.50595 9.71968 5.50595 8.11476C5.50595 6.50999 6.8118 5.20429 8.41657 5.20429C10.0215 5.20429 11.3272 6.50999 11.3272 8.11476C11.3272 9.71968 10.0215 11.0254 8.41657 11.0254Z" fill="#89D7D7"/>
<path d="M15.9565 7.84116L14.9917 5.97852L14.6774 3.90454C14.6484 3.71335 14.5285 3.54825 14.3556 3.46173L12.4803 2.52194L11.0069 1.02872C10.8711 0.891082 10.6771 0.828063 10.4863 0.859496L8.41671 1.20145L6.34715 0.859496C6.15642 0.828063 5.96233 0.891082 5.82652 1.02872L4.35328 2.52179L2.47782 3.46173C2.30509 3.54825 2.18501 3.71335 2.15617 3.90454L1.84184 5.97837L0.877022 7.84101C0.788063 8.01267 0.788063 8.21683 0.877022 8.3885L1.84184 10.2511L2.15617 12.3251C2.18501 12.5162 2.30509 12.6813 2.47782 12.7679L4.35328 13.7079L4.63466 13.9931V20.2565C4.63466 20.4628 4.74147 20.6543 4.91695 20.7626C5.01247 20.8218 5.12096 20.8516 5.22975 20.8516C5.32069 20.8516 5.41194 20.8307 5.49586 20.7887L8.41671 19.3283L11.3375 20.7887C11.522 20.8809 11.7411 20.8711 11.9165 20.7626C12.0919 20.6543 12.1988 20.4626 12.1988 20.2565V13.9932L12.4803 13.7079L14.3556 12.7679C14.5285 12.6814 14.6484 12.5163 14.6774 12.3251L14.9917 10.2513L15.9565 8.3885C16.0454 8.21683 16.0454 8.01267 15.9565 7.84116ZM11.0086 19.2937L8.68297 18.1308C8.51528 18.047 8.31814 18.047 8.15059 18.1308L5.82484 19.2937V15.1993L5.82652 15.2009C5.96233 15.3386 6.15642 15.4017 6.34715 15.3702L8.41671 15.0282L10.4863 15.3702C10.5186 15.3755 10.5511 15.3781 10.5833 15.3781C10.7412 15.3781 10.8941 15.3152 11.0069 15.2011L11.0086 15.1993V19.2937ZM13.8897 9.79109C13.8597 9.84892 13.8394 9.91117 13.8296 9.97556L13.5469 11.842L11.8591 12.688C11.801 12.7171 11.7479 12.7556 11.7022 12.802L10.3762 14.1456L8.51375 13.8379C8.44967 13.8273 8.38405 13.8272 8.31966 13.8379L6.45717 14.1456L5.6512 13.3288C5.65074 13.3284 5.65044 13.3281 5.64998 13.3276L5.13133 12.802C5.08556 12.7556 5.03261 12.7171 4.97432 12.688L3.28654 11.842L3.00364 9.97572C2.99388 9.91132 2.97374 9.84892 2.94368 9.79109L2.07545 8.11491L2.94368 6.43857C2.97374 6.38074 2.99388 6.31849 3.00364 6.25409L3.28654 4.38764L4.97432 3.54184C5.03261 3.5127 5.08556 3.47409 5.13133 3.42771L6.45717 2.08402L8.31966 2.39179C8.3839 2.40231 8.44951 2.40231 8.51375 2.39179L10.3761 2.08402L11.7021 3.42771C11.7479 3.47409 11.801 3.5127 11.8591 3.54184L13.5467 4.38764L13.8296 6.25409C13.8394 6.31849 13.8597 6.38074 13.8896 6.43857L14.7578 8.11491L13.8897 9.79109Z" fill="#89D7D7"/>
</svg>
