<svg width="9" height="16" viewBox="0 0 9 16" fill="none" xmlns="http://www.w3.org/2000/svg">
    <path d="M7.82801 0.0953369H1.14058C0.583441 0.0953369 0.127441 0.550908 0.127441 1.10848V14.0818C0.127441 14.6393 0.583441 15.0953 1.14058 15.0953H7.82801C8.38516 15.0953 8.84116 14.6402 8.84116 14.0822V1.10848C8.84116 0.550908 8.38516 0.0953369 7.82801 0.0953369ZM3.41458 0.825623H5.55401C5.62173 0.825623 5.67658 0.88048 5.67658 0.948623C5.67658 1.01634 5.62173 1.07119 5.55401 1.07119H3.41458C3.34687 1.07119 3.29201 1.01634 3.29201 0.948623C3.29201 0.88048 3.34687 0.825623 3.41458 0.825623ZM4.4843 14.5888C4.20444 14.5888 3.97773 14.3621 3.97773 14.0818C3.97773 13.8015 4.20444 13.5752 4.4843 13.5752C4.76416 13.5752 4.99087 13.8015 4.99087 14.0818C4.99087 14.3621 4.76416 14.5888 4.4843 14.5888ZM8.13616 13.2203H0.832441V1.70205H8.13616V13.2203Z" fill="white"/>
</svg>
